<?xml version="1.0" standalone="no"?>
<!DOCTYPE svg PUBLIC "-//W3C//DTD SVG 20010904//EN"
 "http://www.w3.org/TR/2001/REC-SVG-20010904/DTD/svg10.dtd">
<svg version="1.0" xmlns="http://www.w3.org/2000/svg"
 width="300.000000pt" height="300.000000pt" viewBox="0 0 300.000000 300.000000"
 preserveAspectRatio="xMidYMid meet">
<metadata>
Created by potrace 1.11, written by Peter Selinger 2001-2013
</metadata>
<g transform="translate(0.000000,300.000000) scale(0.100000,-0.100000)"
fill="#000000" stroke="none">
<path d="M1193 2980 c-233 -82 -367 -276 -419 -605 -11 -70 -17 -187 -19 -392
l-2 -293 41 -1 c51 -1 439 -1 487 0 l36 1 -1 280 0 279 -120 3 -121 3 2 75 c7
237 45 364 132 447 l44 42 1 76 c2 107 1 107 -61 85z"/>
<path d="M2139 2985 c-191 -70 -318 -209 -387 -425 -46 -144 -58 -263 -61
-612 -2 -244 -2 -258 16 -259 97 -3 533 0 539 4 7 4 11 509 5 550 0 4 -54 7
-120 7 l-119 0 3 98 c6 219 52 367 135 434 l40 31 0 94 c0 51 -3 93 -7 92 -5
0 -24 -6 -44 -14z"/>
<path d="M754 1028 l1 -282 120 0 120 -1 -1 -60 c-2 -238 -48 -394 -137 -470
l-39 -34 0 -86 c0 -47 2 -89 6 -92 12 -12 143 48 206 96 163 122 255 331 277
626 4 50 7 200 8 335 l0 245 -281 3 -280 2 0 -282z"/>
<path d="M1692 1028 l3 -283 118 1 117 1 1 -26 c1 -46 -2 -151 -6 -174 -2 -12
-6 -44 -10 -71 -8 -63 -41 -161 -67 -201 -11 -16 -37 -44 -56 -62 l-36 -32 -1
-90 c0 -50 3 -91 8 -91 17 0 143 54 173 74 147 100 264 298 290 494 3 26 8 56
10 67 15 76 28 628 16 663 -3 9 -69 12 -283 12 l-279 0 2 -282z"/>
</g>
</svg>
